<svg version="1.1" id="Layer_1" xmlns="http://www.w3.org/2000/svg" xmlns:xlink="http://www.w3.org/1999/xlink" x="0px" y="0px"
	 width="100%" viewBox="0 0 1024 1024" enable-background="new 0 0 1024 1024" xml:space="preserve">
<path fill="#000000" opacity="1.000000" stroke="none" 
	d="
M597.000000,376.657959 
	C618.005493,376.363403 638.503296,376.493805 658.425598,382.218964 
	C706.083557,395.914581 734.733032,427.391663 743.993164,475.904755 
	C748.666321,500.387268 747.611694,525.100586 740.728638,549.144653 
	C727.932861,593.843567 697.758301,619.890930 652.649109,629.231934 
	C641.705017,631.498230 630.622131,632.462585 619.416870,632.420288 
	C589.754028,632.308411 560.089783,632.310242 530.427551,632.493103 
	C525.934998,632.520813 524.472351,631.398254 524.494141,626.670593 
	C524.679504,586.509399 524.624268,546.346863 524.564026,506.184906 
	C524.547241,495.025024 524.336609,483.864075 524.081665,472.706665 
	C523.991272,468.752747 525.156738,467.237701 529.561951,467.343781 
	C544.718018,467.708801 559.893738,467.815155 575.047180,467.433533 
	C580.375427,467.299347 581.391418,469.076263 581.365295,473.925079 
	C581.192383,506.087158 581.289062,538.250732 581.307190,570.413818 
	C581.313599,581.842896 580.410950,580.871521 591.398438,580.662354 
	C604.210754,580.418518 617.044983,581.531921 629.837280,579.901428 
	C660.362549,576.010681 678.831421,559.537231 685.155029,529.350708 
	C688.914001,511.406769 689.314270,493.209900 683.492371,475.544342 
	C675.325012,450.762299 657.693115,436.183777 632.539551,430.477966 
	C625.235168,428.821075 617.722961,428.364075 610.222229,428.354492 
	C586.224915,428.323883 562.226562,428.225128 538.231018,428.432373 
	C533.370605,428.474335 531.425476,427.320312 531.559509,422.063873 
	C531.899292,408.740723 531.795654,395.401154 531.593445,382.072327 
	C531.531128,377.965027 532.859497,376.569611 537.009033,376.602966 
	C556.838196,376.762421 576.669495,376.665161 597.000000,376.657959 
z"/>
<path fill="#000000" opacity="1.000000" stroke="none" 
	d="
M299.780334,449.000000 
	C299.773682,436.169128 299.801392,423.838074 299.742493,411.507446 
	C299.718079,406.399414 298.928589,405.872284 294.127258,407.380371 
	C285.549957,410.074402 276.984497,412.806213 268.398865,415.473328 
	C266.876495,415.946259 265.401215,417.028564 263.577209,416.190704 
	C263.205109,414.025177 264.950592,412.902039 265.976013,411.562653 
	C273.975281,401.113861 282.128571,390.782684 290.094910,380.309174 
	C292.100342,377.672577 294.355560,376.566284 297.697906,376.587036 
	C315.860199,376.699738 334.025482,376.750000 352.185455,376.504547 
	C356.504761,376.446198 357.445618,377.950073 357.436096,381.956085 
	C357.330139,426.596161 357.280426,471.237091 357.482117,515.876587 
	C357.526306,525.654480 357.923584,535.456604 360.283142,545.105530 
	C366.079132,568.807007 384.604858,583.148254 409.059509,583.829407 
	C434.062073,584.525757 452.584045,571.079407 459.049316,550.415771 
	C461.548096,542.429382 462.674164,534.190430 462.677155,525.817078 
	C462.694000,478.659729 462.695129,431.502411 462.705292,384.345062 
	C462.706970,376.628815 462.715912,376.681213 470.342712,376.629974 
	C485.334656,376.529266 500.326660,376.400330 515.317505,376.198273 
	C518.756531,376.151947 520.426331,377.174500 520.416809,381.043335 
	C520.295837,430.366455 520.999817,479.703949 520.006104,529.007812 
	C519.439392,557.124939 510.523682,583.060059 491.079834,604.350708 
	C476.988556,619.780396 459.173126,628.855896 438.830780,632.624512 
	C415.264008,636.990479 391.605804,637.150696 368.897034,628.554321 
	C334.207184,615.422485 314.180573,589.111572 304.773376,554.020630 
	C301.001678,539.951355 299.879974,525.506226 299.825317,510.986053 
	C299.748199,490.490936 299.789215,469.995361 299.780334,449.000000 
z"/>
<path fill="#000000" opacity="1.000000" stroke="none" 
	d="
M619.863464,980.101074 
	C627.478271,984.611877 634.829834,988.856201 642.066223,993.288513 
	C644.960938,995.061523 647.294067,995.028381 650.321899,993.221252 
	C658.465881,988.360535 666.879700,983.952759 675.174438,979.343689 
	C679.825500,976.759338 683.090088,974.146057 682.631470,967.432861 
	C682.151978,960.414307 682.598511,953.155334 682.930908,946.009521 
	C683.039795,943.667847 683.269470,941.388672 684.777893,938.924744 
	C686.899292,942.015198 686.796387,945.335571 686.897583,948.476135 
	C687.122437,955.450928 687.185120,962.436890 687.070496,969.414307 
	C687.014465,972.823303 688.239380,974.946289 691.297791,976.556641 
	C697.419800,979.780212 703.497620,983.152527 708.856018,988.561768 
	C706.052063,989.625854 704.100037,988.456726 702.363098,987.556580 
	C697.639526,985.108643 692.979675,982.512329 688.458252,979.710449 
	C686.153137,978.282043 684.378357,978.347534 682.059082,979.715454 
	C672.167236,985.549622 662.230957,991.317810 652.154968,996.824951 
	C649.061462,998.515747 647.904602,1000.569702 648.061584,1003.968201 
	C648.217773,1007.349365 648.799133,1010.915833 646.298706,1014.335815 
	C642.698608,1010.813293 644.245605,1006.551941 644.516479,1002.997803 
	C644.785706,999.465149 643.757935,997.953979 640.864136,996.435059 
	C630.556091,991.024231 620.345215,985.424438 610.180481,979.747681 
	C608.053894,978.560120 606.516357,979.089539 604.655273,980.131165 
	C595.215759,985.413940 585.634949,990.450195 576.289551,995.892212 
	C571.602051,998.621826 567.596924,998.288208 562.804016,995.913269 
	C553.538513,991.322205 544.743835,985.937927 535.831726,980.762695 
	C532.394714,978.766846 529.751221,978.599182 526.184021,980.417847 
	C516.075073,985.571533 506.368134,991.350830 496.881378,997.553589 
	C494.769012,998.934814 494.067627,1000.547241 494.018768,1002.893555 
	C493.922516,1007.517944 493.624573,1012.135620 492.441376,1016.868896 
	C487.132599,1009.418945 489.288422,996.578430 496.540131,992.299866 
	C504.388000,987.669617 512.242249,983.006226 520.375244,978.917419 
	C526.794006,975.690369 528.948364,970.681458 528.730286,964.002136 
	C528.594421,959.842834 528.552185,955.678589 528.568237,951.516907 
	C528.578979,948.755127 528.183289,945.897095 529.886841,943.027649 
	C532.255005,944.256287 532.035217,946.373108 532.066772,948.201172 
	C532.193115,955.524841 532.309204,962.852478 532.187683,970.174683 
	C532.143982,972.805542 532.858704,974.677063 535.148499,975.977722 
	C545.715210,981.979919 556.270508,988.002136 566.826599,994.023071 
	C568.810303,995.154541 570.545898,994.682190 572.424072,993.557251 
	C581.849121,987.911865 591.288696,982.287354 600.823547,976.830872 
	C603.644592,975.216431 604.883484,972.934021 604.914307,969.933167 
	C604.983887,963.150391 605.529480,956.380920 604.994568,949.576599 
	C604.661377,945.337891 604.905273,941.014587 607.437622,936.722473 
	C610.158508,939.729553 609.762512,943.167603 609.925964,946.241150 
	C610.243958,952.221130 610.695496,958.309692 609.933411,964.203552 
	C608.870667,972.423828 612.454346,977.061401 619.863464,980.101074 
z"/>
<path fill="#000000" opacity="1.000000" stroke="none" 
	d="
M190.190018,926.225098 
	C179.850357,929.143860 178.008850,936.752258 178.010757,945.753052 
	C178.011688,950.103149 177.707977,954.568359 175.574310,959.133362 
	C171.648224,956.370117 172.988312,952.444763 172.025528,949.382751 
	C171.600037,948.029541 171.710083,946.320312 172.110229,944.925781 
	C174.488129,936.637756 169.976105,932.140320 163.653030,928.082764 
	C155.650696,922.947693 147.144501,918.738342 138.983032,913.908447 
	C136.401398,912.380615 133.828003,913.188293 131.351868,914.399292 
	C129.466217,915.321350 127.734306,916.695923 125.430023,916.627319 
	C125.043007,914.725037 126.318916,913.794250 127.356873,913.341797 
	C133.236710,910.779053 134.039291,906.026917 133.825241,900.334900 
	C133.543777,892.850403 133.791962,885.344421 133.882431,877.848450 
	C133.912094,875.390381 134.077148,872.911011 135.561615,870.803711 
	C138.209808,871.226318 138.041565,873.089539 138.065231,874.665344 
	C138.215134,884.648376 138.493103,894.636414 138.284500,904.613525 
	C138.222748,907.566589 138.915833,909.352539 141.420715,910.667297 
	C151.883026,916.158691 162.316177,921.705750 172.782074,927.190369 
	C175.292206,928.505737 177.643890,927.711609 179.850677,926.291077 
	C189.393921,920.147827 200.114014,916.232788 209.843430,910.452942 
	C214.021576,907.970886 217.648270,909.949707 221.143036,911.750061 
	C231.053375,916.855408 240.903671,922.085938 250.643219,927.508606 
	C253.223160,928.944946 255.079071,928.165771 257.068054,926.857178 
	C266.131592,920.894470 276.211731,916.893250 285.800446,911.945923 
	C287.535309,911.050842 289.461548,910.436157 292.206421,910.927124 
	C285.737213,916.478027 278.194366,919.346252 271.683929,923.808350 
	C266.512329,927.353027 258.379913,928.758911 256.302795,933.993042 
	C254.226288,939.225769 255.216965,946.342957 255.180527,952.645813 
	C255.144928,958.802917 255.731033,964.989563 254.717972,971.110046 
	C254.276505,973.777283 255.601212,975.023315 257.687561,976.198303 
	C262.078033,978.670776 266.611694,980.991455 270.520905,985.127625 
	C259.129791,983.489258 253.250259,977.772644 251.788422,967.395081 
	C250.433777,957.778564 250.633957,948.109924 251.262054,938.471558 
	C251.445511,935.656616 251.004013,933.956299 248.653778,932.193298 
	C240.885483,926.365906 231.526047,923.058350 224.019821,917.052307 
	C217.335312,911.703735 211.916367,912.335754 205.512711,917.098206 
	C200.864899,920.554810 195.525894,923.082092 190.190018,926.225098 
z"/>
<path fill="#000000" opacity="1.000000" stroke="none" 
	d="
M345.115417,980.837463 
	C352.705536,985.054138 360.045990,988.976807 367.191742,993.226929 
	C369.830872,994.796570 371.798004,994.893433 374.485199,993.280701 
	C382.477173,988.484070 390.406128,983.448242 398.853516,979.585754 
	C406.065247,976.288208 407.913208,971.064087 407.552185,964.032654 
	C407.151611,956.231873 406.441437,948.425720 407.745514,940.632874 
	C408.032745,938.916565 407.419983,936.867615 409.664612,935.960876 
	C411.761108,936.464417 411.346252,938.183472 411.489136,939.586121 
	C412.504547,949.557312 412.079620,959.563843 412.008118,969.550598 
	C411.981659,973.246887 413.158813,975.413940 416.488861,976.962952 
	C421.120087,979.117188 425.514313,981.740234 429.492126,986.395020 
	C423.268097,986.074402 418.996887,983.175232 414.810974,980.373169 
	C411.637421,978.248779 409.074646,978.190002 405.702301,980.177307 
	C396.528351,985.583923 386.978027,990.354431 377.833496,995.807495 
	C372.605408,998.925171 368.045654,998.241028 363.119812,995.473755 
	C353.405457,990.016357 343.534912,984.835205 333.861328,979.308228 
	C331.594818,978.013245 330.220764,978.934265 328.413971,979.861633 
	C319.079834,984.652466 310.544495,990.862183 300.961121,995.210449 
	C292.849915,998.890747 289.236511,998.419250 283.527679,992.690308 
	C284.438599,991.373962 285.767365,991.865723 286.569153,992.438049 
	C290.938354,995.556702 294.662537,994.240906 298.880646,991.707275 
	C306.718719,986.999146 314.886322,982.836609 322.947388,978.503906 
	C326.843445,976.409790 328.790100,973.277222 328.783295,968.821106 
	C328.767517,958.493347 328.711487,948.162598 328.946533,937.839355 
	C329.020599,934.586487 327.930969,932.423706 325.247742,930.841614 
	C317.937805,926.531311 310.635223,922.208496 303.337524,917.877502 
	C301.838409,916.987793 299.910583,916.534241 299.332397,914.142639 
	C302.193939,913.058594 304.428619,914.628296 306.317322,915.778015 
	C313.571198,920.193542 321.921936,922.515991 328.755310,927.691162 
	C331.046387,929.426331 333.177032,928.471619 335.228271,927.186768 
	C339.039825,924.799561 342.805634,922.341431 347.078644,920.805237 
	C348.910889,920.146484 350.718292,919.487976 353.403992,919.827637 
	C349.791107,924.695068 344.789825,926.569336 340.304291,928.636475 
	C334.682159,931.227417 332.865814,934.926575 333.216125,940.802002 
	C333.770813,950.105530 334.017303,959.440613 333.976471,968.760437 
	C333.958893,972.771606 335.117615,975.386536 338.827728,977.036987 
	C340.936493,977.975220 342.809418,979.443665 345.115417,980.837463 
z"/>
<path fill="#000000" opacity="1.000000" stroke="none" 
	d="
M485.454956,979.464233 
	C478.337708,983.060730 471.857605,987.125916 464.717651,989.806274 
	C464.437164,989.400940 464.156677,988.995605 463.876190,988.590271 
	C470.002747,984.176453 476.129303,979.762634 482.613831,975.090942 
	C481.648438,973.845581 480.937866,972.788635 482.539368,970.489624 
	C484.691010,967.400513 485.145660,963.061157 484.872955,959.027100 
	C484.264343,950.023926 485.864441,941.149963 486.338837,932.211060 
	C486.454803,930.026428 487.699615,929.851135 489.244476,930.313049 
	C490.249969,944.132385 490.212372,957.873291 490.095459,971.614258 
	C490.077179,973.762451 491.404022,974.753784 492.898499,975.957581 
	C494.848175,977.528015 497.711273,978.279968 498.519806,981.223083 
	C495.930725,983.067139 494.196320,981.294067 492.620972,980.062866 
	C490.401764,978.328552 488.277588,977.687927 485.454956,979.464233 
z"/>
<path fill="#000000" opacity="1.000000" stroke="none" 
	d="
M840.062988,930.889160 
	C846.394714,926.045166 852.983276,922.396179 860.463196,920.377075 
	C858.727051,923.997070 855.370483,925.991394 852.195435,927.348206 
	C844.056641,930.826050 841.742249,936.611938 842.719727,944.988037 
	C843.456665,951.303040 843.632874,957.814270 841.286865,963.883545 
	C839.139038,964.014771 839.079468,962.703552 838.805969,961.607910 
	C836.671631,953.056458 836.419067,944.541199 839.122742,936.032471 
	C839.612976,934.489441 839.627014,932.795105 840.062988,930.889160 
z"/>
<path fill="#000000" opacity="1.000000" stroke="none" 
	d="
M310.865417,58.769920 
	C314.011108,57.434498 316.813324,56.238998 319.615540,55.043503 
	C319.849487,55.557117 320.083466,56.070732 320.317413,56.584347 
	C313.785431,61.085423 307.326904,65.718010 299.281067,67.574997 
	C302.251770,63.569054 306.466522,61.346611 310.865417,58.769920 
z"/>
<path fill="#000000" opacity="1.000000" stroke="none" 
	d="
M987.129395,861.093262 
	C984.761536,862.313904 983.000854,863.959900 980.333130,863.855164 
	C985.502869,856.750305 993.964233,855.051880 1001.366638,851.585754 
	C997.495728,855.870056 992.360352,858.229736 987.129395,861.093262 
z"/>
<path fill="#000000" opacity="1.000000" stroke="none" 
	d="
M400.364563,924.561646 
	C402.571381,925.894348 404.929871,926.493469 406.321350,929.781189 
	C401.543854,928.888733 398.322784,926.621094 394.509521,924.154602 
	C397.036194,922.460693 398.490814,923.938721 400.364563,924.561646 
z"/>
</svg>